<?xml version="1.0" standalone="no"?>
<!DOCTYPE svg PUBLIC "-//W3C//DTD SVG 20010904//EN"
 "http://www.w3.org/TR/2001/REC-SVG-20010904/DTD/svg10.dtd">
<svg version="1.0" xmlns="http://www.w3.org/2000/svg"
 width="640.000000pt" height="1280.000000pt" viewBox="0 0 640.000000 1280.000000"
 preserveAspectRatio="xMidYMid meet">
<metadata>
Created by potrace 1.15, written by Peter Selinger 2001-2017
</metadata>
<g transform="translate(0.000000,1280.000000) scale(0.100000,-0.100000)"
fill="#000000" stroke="none">
<path d="M2860 12772 c-45 -29 -126 -110 -166 -167 -18 -26 -28 -30 -93 -36
-79 -7 -117 -27 -139 -73 -17 -34 -7 -65 24 -76 34 -13 67 2 134 60 32 28 64
50 72 50 8 0 34 -20 58 -45 61 -62 81 -60 155 15 33 33 63 60 67 60 4 0 8 -19
8 -43 l0 -43 -142 -120 c-78 -65 -148 -129 -156 -141 -13 -21 -12 -23 11 -34
23 -11 31 -8 74 28 70 59 114 83 150 83 36 0 46 -14 57 -71 4 -21 18 -53 31
-73 l24 -36 -24 0 c-22 0 -25 -4 -26 -37 0 -37 0 -38 -16 -15 -31 44 -94 23
-165 -57 -80 -88 -96 -149 -55 -197 30 -34 57 -29 123 26 63 52 86 52 118 -2
21 -35 23 -44 11 -46 -8 -2 -15 -14 -15 -28 0 -14 -6 -24 -14 -24 -23 0 -168
-77 -208 -110 -41 -34 -56 -87 -39 -133 15 -38 43 -35 131 18 41 25 81 44 89
43 32 -7 55 -57 59 -131 l4 -72 -24 23 c-35 31 -58 28 -102 -17 -21 -22 -62
-56 -92 -78 -69 -49 -83 -75 -63 -111 8 -15 27 -33 43 -41 35 -16 58 -7 116
45 33 30 45 36 58 27 36 -22 54 -72 60 -161 l5 -86 -24 17 c-69 50 -144 60
-214 28 -53 -24 -68 -44 -69 -94 -1 -36 2 -42 21 -45 12 -2 42 6 68 18 26 12
54 20 63 18 9 -2 29 -28 44 -58 14 -30 36 -62 48 -72 15 -12 22 -30 24 -58 0
-22 -2 -40 -5 -40 -3 0 -16 18 -28 41 -39 69 -80 109 -111 109 -67 0 -170
-115 -177 -197 -5 -47 -7 -49 -49 -67 -109 -45 -133 -112 -61 -170 36 -28 44
-31 105 -29 37 1 79 3 93 4 36 3 79 -30 122 -93 64 -96 65 -94 -72 -87 -103 5
-128 10 -176 33 -53 27 -57 27 -81 11 -58 -38 -48 -100 23 -147 90 -59 248
-102 290 -79 34 18 51 -14 62 -113 6 -49 18 -102 28 -120 12 -20 17 -46 15
-73 l-3 -43 -55 59 c-116 125 -234 171 -276 107 -22 -33 11 -114 65 -159 38
-31 95 -57 126 -57 42 0 68 -32 82 -99 16 -77 39 -150 50 -156 5 -4 9 -22 9
-42 l0 -36 -41 47 c-72 82 -158 108 -213 65 -14 -11 -26 -31 -26 -43 0 -34 39
-85 94 -125 39 -28 60 -36 108 -39 70 -5 65 7 72 -188 l5 -142 -45 25 c-82 46
-175 28 -208 -41 -24 -50 -21 -146 5 -180 24 -31 51 -33 125 -10 72 23 84 17
84 -49 0 -39 6 -61 20 -80 16 -20 20 -40 20 -101 l0 -76 -40 0 c-58 0 -145
-36 -176 -73 -23 -27 -26 -38 -22 -84 3 -32 12 -61 23 -73 24 -27 77 -26 125
1 21 12 45 19 53 16 22 -8 39 -125 35 -237 l-3 -95 -83 -16 c-123 -24 -162
-60 -162 -149 0 -92 43 -110 152 -64 86 36 89 32 99 -148 6 -121 5 -147 -8
-167 -13 -20 -19 -22 -46 -15 -18 4 -55 8 -84 9 -44 0 -56 -4 -82 -29 -47 -45
-43 -81 17 -145 26 -28 56 -51 65 -51 9 0 37 7 63 16 68 23 73 18 76 -83 3
-84 4 -88 26 -91 23 -3 23 -4 6 -23 -10 -12 -21 -45 -25 -82 -10 -83 -30 -100
-109 -91 -57 6 -58 6 -84 -29 -49 -64 -44 -151 10 -176 47 -21 100 -14 139 20
l35 31 0 -56 0 -56 52 0 52 0 -45 -28 c-59 -38 -74 -67 -65 -131 8 -61 0 -69
-116 -132 -146 -79 -180 -131 -117 -183 17 -14 42 -29 56 -32 38 -10 100 13
144 53 27 24 39 30 39 20 0 -11 12 -17 43 -19 l42 -3 -35 -22 c-42 -26 -66
-64 -75 -118 -15 -88 -38 -115 -101 -115 -21 0 -30 -10 -50 -55 -34 -73 -52
-169 -35 -188 18 -22 41 -11 128 58 l78 63 5 -77 c4 -53 9 -75 18 -73 22 4 12
-13 -18 -31 -41 -24 -53 -52 -47 -102 7 -48 -4 -65 -44 -65 -48 0 -106 -61
-94 -99 6 -20 71 -51 106 -51 12 0 34 14 49 30 l28 30 4 -76 c3 -74 2 -76 -24
-90 -40 -21 -55 -50 -62 -122 -10 -103 -26 -127 -120 -173 -92 -46 -116 -65
-116 -89 0 -56 154 -27 207 38 l22 27 1 -131 c0 -107 -3 -134 -16 -144 -12
-10 -15 -30 -12 -82 3 -86 -6 -97 -67 -80 -119 32 -268 -11 -224 -64 17 -20
117 -37 185 -31 94 9 105 4 97 -48 -4 -35 -2 -46 16 -64 18 -18 21 -33 21 -95
l0 -74 -37 -19 c-26 -13 -39 -27 -45 -48 l-7 -31 -93 0 c-97 1 -153 -16 -153
-44 0 -18 217 -132 251 -132 20 0 26 -8 34 -42 6 -22 15 -51 20 -64 14 -33 13
-272 -1 -272 -6 0 -36 8 -67 17 -34 10 -94 17 -149 17 -82 1 -95 -1 -114 -21
-16 -15 -20 -28 -15 -47 14 -55 75 -83 154 -70 59 9 123 -22 147 -72 18 -37
18 -40 0 -84 -40 -102 -28 -188 31 -210 23 -9 24 -13 24 -100 0 -90 -6 -104
-31 -73 -23 27 -111 63 -156 63 -42 0 -83 -25 -83 -51 0 -26 35 -81 77 -120
38 -35 50 -40 75 -35 l29 6 -8 -58 c-4 -31 -8 -81 -7 -110 1 -47 -1 -52 -21
-52 -12 0 -30 10 -41 22 -23 25 -141 82 -205 98 -95 24 -154 -34 -208 -205
-76 -235 -106 -444 -80 -540 17 -60 41 -88 139 -161 99 -74 163 -147 215 -246
37 -71 65 -173 65 -244 0 -71 36 -166 81 -218 53 -59 68 -67 153 -76 85 -10
106 -29 106 -96 0 -35 -6 -50 -30 -76 -50 -52 -30 -124 37 -132 47 -6 49 -9
94 -98 75 -150 111 -188 175 -188 39 0 92 60 142 163 49 100 72 128 101 120
31 -8 71 38 71 82 0 23 -6 38 -15 42 -20 7 -45 55 -45 87 0 64 38 96 116 96
122 0 205 108 226 293 25 227 117 380 304 507 97 66 124 118 124 238 0 154
-82 482 -145 581 -57 91 -116 97 -260 28 -52 -26 -98 -53 -101 -62 -3 -8 -18
-15 -33 -15 -26 0 -26 1 -26 68 0 37 -4 87 -9 111 -8 41 -7 43 14 36 31 -10
73 11 107 53 59 74 67 111 31 136 -45 32 -134 14 -205 -40 l-33 -25 0 95 c0
73 3 96 13 96 8 0 24 12 38 26 19 21 24 36 23 77 0 29 -8 66 -17 84 -51 97 29
197 142 178 50 -8 116 10 136 38 8 12 15 34 15 50 0 55 -93 71 -238 41 -42 -9
-85 -20 -94 -25 -17 -9 -18 -1 -18 118 0 85 6 151 16 195 15 62 19 68 43 68
35 1 245 111 249 131 5 26 -47 42 -148 44 l-95 1 -9 32 c-6 23 -18 35 -47 46
l-39 16 0 78 c0 66 3 79 20 90 16 9 20 23 20 62 0 33 4 50 13 51 6 1 59 2 117
3 84 1 112 5 134 19 35 23 30 47 -14 70 -28 15 -49 17 -110 12 -41 -3 -91 -6
-110 -8 l-35 -2 -3 77 c-2 52 -7 80 -17 88 -12 10 -15 41 -15 142 l0 130 39
-35 c59 -53 163 -75 192 -41 12 15 9 21 -24 49 -21 19 -67 46 -103 61 -54 23
-66 33 -83 68 -11 23 -22 70 -26 106 -7 68 -21 93 -65 115 -24 12 -25 16 -22
89 l4 76 29 -31 c26 -28 34 -31 70 -26 89 12 115 64 59 117 -20 19 -44 30 -68
32 l-37 3 -3 62 c-3 58 -5 64 -40 93 -20 16 -31 30 -25 30 8 0 13 27 15 80 l3
80 70 -56 c89 -71 118 -87 134 -71 16 16 14 67 -9 138 -25 81 -44 109 -76 109
-14 0 -34 5 -46 11 -22 12 -48 66 -48 100 0 37 -32 91 -73 120 l-40 29 41 0
c32 0 42 4 42 16 0 12 10 7 37 -16 76 -67 150 -76 205 -24 60 58 30 103 -124
187 -47 26 -91 54 -99 63 -9 12 -13 36 -11 76 4 55 2 60 -30 91 -18 17 -42 37
-53 44 -17 10 -14 12 28 12 l47 1 0 55 c0 30 3 55 6 55 3 0 19 -13 34 -30 24
-26 35 -30 79 -30 42 0 57 5 76 25 42 41 30 130 -24 179 -17 15 -29 17 -71 12
-29 -4 -58 -2 -70 4 -20 11 -40 66 -40 111 0 15 -9 38 -20 52 -26 32 -25 35 5
29 l25 -4 0 83 c0 112 4 117 70 96 29 -9 60 -17 70 -17 20 0 104 87 114 118
10 30 -18 78 -55 98 -31 15 -67 15 -145 -1 -51 -11 -58 8 -55 148 2 121 13
191 31 202 5 3 38 -6 73 -20 35 -14 75 -25 89 -25 55 0 81 72 53 145 -20 54
-58 77 -154 93 -93 17 -93 16 -88 146 8 202 22 229 92 186 76 -47 147 -7 149
84 1 34 -5 50 -24 71 -37 40 -96 67 -162 72 l-58 6 0 69 c0 56 4 75 22 99 16
22 23 45 24 85 1 30 4 58 8 61 3 4 27 1 54 -6 82 -23 122 -20 144 10 45 60 25
184 -36 224 -41 27 -116 23 -172 -10 l-46 -27 5 43 c4 24 6 90 6 146 0 126 7
143 63 143 56 0 118 32 167 85 50 54 54 93 15 124 -55 43 -147 13 -218 -71
l-36 -43 0 32 c0 17 9 47 20 65 10 19 26 67 35 108 20 99 39 123 100 132 158
23 264 246 115 242 -54 -2 -121 -43 -202 -126 l-68 -69 0 44 c0 24 9 62 20 84
11 23 23 74 26 115 8 90 25 123 56 107 51 -27 250 35 319 100 44 43 50 75 19
108 -30 33 -56 37 -89 14 -37 -26 -103 -39 -217 -43 l-92 -3 10 25 c25 65 91
141 141 159 18 7 36 7 53 1 95 -36 233 39 205 112 -12 30 -36 51 -95 81 -43
22 -49 29 -52 60 -8 90 -113 207 -187 207 -28 0 -53 -25 -98 -100 l-34 -55 -3
38 c-3 30 3 45 25 70 15 18 37 51 47 75 24 53 50 61 106 32 59 -30 84 -24 88
21 4 45 -33 92 -84 109 -56 19 -136 8 -178 -23 -19 -15 -38 -27 -42 -27 -15 0
3 158 22 195 33 63 46 65 102 18 71 -60 94 -63 136 -21 47 47 40 66 -53 137
-42 32 -87 70 -100 85 -27 29 -62 34 -81 11 -21 -26 -30 -17 -30 30 0 54 25
122 50 135 23 12 40 6 114 -42 91 -59 126 -49 126 33 0 42 -4 50 -41 84 -39
35 -189 115 -216 115 -7 0 -13 11 -13 25 0 16 -6 25 -15 25 -12 0 -11 8 8 37
43 68 59 68 145 -2 59 -47 86 -46 112 5 21 40 21 41 1 85 -22 50 -102 140
-143 161 -37 19 -58 18 -85 -8 l-23 -21 0 36 c0 33 -3 37 -26 37 l-26 0 25 29
c13 16 30 51 36 77 7 27 17 54 23 61 26 31 92 5 192 -76 43 -34 58 -38 75 -17
17 20 -28 67 -179 192 -119 98 -120 99 -120 142 0 23 5 42 10 42 6 0 36 -27
67 -60 72 -75 92 -77 153 -15 24 25 52 45 62 45 10 0 43 -23 74 -50 68 -63 96
-75 132 -58 35 17 40 56 11 92 -29 37 -76 56 -136 56 -50 0 -93 21 -93 44 0
20 -128 145 -171 166 -52 27 -65 26 -172 -17 -122 -49 -182 -50 -287 -5 -110
48 -145 50 -200 14z m303 -1159 c-13 -2 -33 -2 -45 0 -13 2 -3 4 22 4 25 0 35
-2 23 -4z m110 0 c-13 -2 -33 -2 -45 0 -13 2 -3 4 22 4 25 0 35 -2 23 -4z
m-373 -1083 c30 -16 63 -82 64 -128 1 -23 -2 -42 -5 -42 -3 0 -16 18 -28 40
-12 22 -38 60 -56 85 -29 37 -31 44 -17 48 9 3 18 5 20 6 2 0 12 -3 22 -9z
m642 0 c5 0 -6 -22 -26 -48 -19 -27 -47 -69 -61 -93 l-25 -44 0 48 c0 75 50
155 88 142 8 -3 18 -5 24 -5z"/>
</g>
</svg>
